<svg xmlns="http://www.w3.org/2000/svg" width="18.281" height="24" viewBox="0 0 18.281 24">
  <g id="to-do-list" transform="translate(-61)">
    <path id="Path_210" data-name="Path 210" d="M78.528,2.162a2.557,2.557,0,0,0-1.822-.756H75.543V1.172A1.173,1.173,0,0,0,74.371,0H65.934a1.173,1.173,0,0,0-1.172,1.172v.234H63.595a2.58,2.58,0,0,0-2.575,2.575L61,21.419A2.577,2.577,0,0,0,63.575,24H76.686a2.58,2.58,0,0,0,2.575-2.575l.019-17.438a2.562,2.562,0,0,0-.753-1.825Zm-12.36-.756h7.969V2.813H66.168ZM77.857,21.423a1.173,1.173,0,0,1-1.171,1.171H63.575A1.171,1.171,0,0,1,62.4,21.421l.019-17.437a1.173,1.173,0,0,1,1.171-1.171h1.167v.234a1.173,1.173,0,0,0,1.172,1.172h8.438a1.173,1.173,0,0,0,1.172-1.172V2.812h1.163a1.171,1.171,0,0,1,1.171,1.173Z" transform="translate(0)" fill="#0c1559"/>
    <path id="Path_211" data-name="Path 211" d="M246.8,171.406h5a.7.7,0,1,0,0-1.406h-5a.7.7,0,1,0,0,1.406Z" transform="translate(-176.423 -162.031)" fill="#0c1559"/>
    <path id="Path_212" data-name="Path 212" d="M246.8,271.406h5a.7.7,0,1,0,0-1.406h-5a.7.7,0,1,0,0,1.406Z" transform="translate(-176.423 -257.344)" fill="#0c1559"/>
    <path id="Path_213" data-name="Path 213" d="M251.818,370H246.8a.7.7,0,1,0,0,1.406h5.016a.7.7,0,0,0,0-1.406Z" transform="translate(-176.423 -352.656)" fill="#0c1559"/>
    <path id="Path_214" data-name="Path 214" d="M132.106,139.97l-1.622,1.622-.382-.382a.7.7,0,0,0-.994.994l.88.88a.7.7,0,0,0,.994,0l2.119-2.119a.7.7,0,0,0-.994-.994Z" transform="translate(-64.719 -133.212)" fill="#0c1559"/>
    <path id="Path_215" data-name="Path 215" d="M132.106,247.607l-1.622,1.622-.382-.382a.7.7,0,0,0-.994.994l.88.88a.7.7,0,0,0,.994,0L133.1,248.6a.7.7,0,0,0-.994-.994Z" transform="translate(-64.719 -235.804)" fill="#0c1559"/>
    <path id="Path_216" data-name="Path 216" d="M132.106,347.607l-1.622,1.622-.382-.382a.7.7,0,0,0-.994.994l.88.88a.7.7,0,0,0,.994,0L133.1,348.6a.7.7,0,0,0-.994-.994Z" transform="translate(-64.719 -331.117)" fill="#0c1559"/>
  </g>
</svg>
