<svg xmlns="http://www.w3.org/2000/svg" width="20.268" height="19" viewBox="0 0 20.268 19">
  <g id="appointment" transform="translate(0 0)">
    <path id="Path_203" data-name="Path 203" d="M18.367,3.267H15.676V2.633a.633.633,0,0,0-1.267,0v.633H5.859V2.633a.633.633,0,0,0-1.267,0v.633H1.9A1.9,1.9,0,0,0,0,5.167V19.1A1.9,1.9,0,0,0,1.9,21H18.367a1.9,1.9,0,0,0,1.9-1.9V5.167A1.9,1.9,0,0,0,18.367,3.267ZM1.9,4.533H4.592v.633a.633.633,0,0,0,1.267,0V4.533h8.55v.633a.633.633,0,0,0,1.267,0V4.533h2.692A.633.633,0,0,1,19,5.167V6.75H1.267V5.167A.633.633,0,0,1,1.9,4.533Zm16.467,15.2H1.9a.633.633,0,0,1-.633-.633V8.017H19V19.1A.633.633,0,0,1,18.367,19.733Z" transform="translate(0 -2)" fill="#0c1559"/>
    <path id="Path_204" data-name="Path 204" d="M26.719,27.132a.633.633,0,0,0-.887.12l-4.626,6.055-1.862-1.989a.634.634,0,1,0-.925.868l2.375,2.533a.633.633,0,0,0,.462.2h.032a.633.633,0,0,0,.472-.25l5.067-6.65A.633.633,0,0,0,26.719,27.132Z" transform="translate(-12.469 -19.085)" fill="#0c1559"/>
  </g>
</svg>
