<svg xmlns="http://www.w3.org/2000/svg" xmlns:xlink="http://www.w3.org/1999/xlink" width="24.271" height="22.319" viewBox="0 0 24.271 22.319">
  <defs>
    <clipPath id="clip-path">
      <path id="path486" d="M0-682.665H24.271v22.319H0Z" transform="translate(0 682.665)" fill="#0c1559"/>
    </clipPath>
  </defs>
  <g id="g480" transform="translate(0 682.665)">
    <g id="g482" transform="translate(0 -682.665)">
      <g id="g484" clip-path="url(#clip-path)">
        <g id="g490" transform="translate(3.508 0)">
          <path id="path492" d="M-429.5-327.141a.52.52,0,0,1-.174.385l-3.246,2.983a.618.618,0,0,1-.42.16h-6.731a.618.618,0,0,1-.42-.16l-3.246-2.983a.52.52,0,0,1-.174-.385v-6.188a.52.52,0,0,1,.172-.383l3.25-3.016a.626.626,0,0,1,.422-.162h6.723a.626.626,0,0,1,.422.162l3.25,3.016a.52.52,0,0,1,.172.383Zm-6.085,8.933a1.07,1.07,0,0,1-1.11,1.021h-.021a1.07,1.07,0,0,1-1.11-1.021v-4.1h2.241Zm6.924-16.425-3.25-3.016a2.122,2.122,0,0,0-1.433-.549h-6.723a2.123,2.123,0,0,0-1.433.549l-3.25,3.016a1.769,1.769,0,0,0-.584,1.3v6.188a1.769,1.769,0,0,0,.591,1.31l3.246,2.983a2.1,2.1,0,0,0,1.426.543h.823v4.1a2.44,2.44,0,0,0,2.532,2.329h.021a2.44,2.44,0,0,0,2.532-2.329v-4.1h.823a2.1,2.1,0,0,0,1.425-.543l3.246-2.983a1.769,1.769,0,0,0,.591-1.31v-6.188a1.769,1.769,0,0,0-.584-1.3" transform="translate(445.332 338.198)" fill="#0c1559"/>
        </g>
        <g id="g494" transform="translate(6.801 5.115)">
          <path id="path496" d="M-52.129-131.747h-.5v-.919h.5a.481.481,0,0,1,.5.459.481.481,0,0,1-.5.459m-.5-3.145h.5a.481.481,0,0,1,.5.459.481.481,0,0,1-.5.459h-.5Zm.5-1.308h-1.211a.684.684,0,0,0-.711.654v4.453a.684.684,0,0,0,.711.654h1.211a1.851,1.851,0,0,0,1.922-1.767,1.674,1.674,0,0,0-.43-1.113,1.674,1.674,0,0,0,.43-1.113,1.851,1.851,0,0,0-1.922-1.767" transform="translate(54.051 136.2)" fill="#0c1559"/>
        </g>
        <g id="g498" transform="translate(11.399 5.115)">
          <path id="path500" d="M-19.289,0A.684.684,0,0,0-20,.654V5.107a.684.684,0,0,0,.711.654.684.684,0,0,0,.711-.654V.654A.684.684,0,0,0-19.289,0" transform="translate(20)" fill="#0c1559"/>
        </g>
        <g id="g502" transform="translate(13.627 5.115)">
          <path id="path504" d="M-65.679-122.8a.317.317,0,0,1-.329.3h-.67v-3.145h.67a.317.317,0,0,1,.329.3Zm-.329-4.151h-1.381a.684.684,0,0,0-.711.654v4.453a.684.684,0,0,0,.711.654h1.381a1.687,1.687,0,0,0,1.751-1.61v-2.541a1.687,1.687,0,0,0-1.751-1.61" transform="translate(68.1 126.956)" fill="#0c1559"/>
        </g>
      </g>
    </g>
  </g>
</svg>
