<svg id="calendar" xmlns="http://www.w3.org/2000/svg" width="19.489" height="19.489" viewBox="0 0 19.489 19.489">
  <g id="Group_251" data-name="Group 251" transform="translate(0)">
    <g id="Group_250" data-name="Group 250">
      <path id="Path_239" data-name="Path 239" d="M17.205,1.523h-.914V0H14.769V1.523H4.72V0H3.2V1.523H2.284A2.286,2.286,0,0,0,0,3.806v13.4a2.286,2.286,0,0,0,2.284,2.284H17.205a2.286,2.286,0,0,0,2.284-2.284V3.806A2.286,2.286,0,0,0,17.205,1.523Zm.761,15.683a.762.762,0,0,1-.761.761H2.284a.762.762,0,0,1-.761-.761V7.156H17.967Zm0-11.572H1.523V3.806a.762.762,0,0,1,.761-.761H3.2V4.568H4.72V3.045H14.769V4.568h1.523V3.045h.914a.762.762,0,0,1,.761.761Z" transform="translate(0)" fill="#0c1559"/>
    </g>
  </g>
  <g id="Group_253" data-name="Group 253" transform="translate(3.574 8.519)">
    <g id="Group_252" data-name="Group 252" transform="translate(0 0)">
      <rect id="Rectangle_246" data-name="Rectangle 246" width="1.886" height="1.997" fill="#0c1559"/>
    </g>
  </g>
  <g id="Group_255" data-name="Group 255" transform="translate(5.845 8.519)">
    <g id="Group_254" data-name="Group 254" transform="translate(0 0)">
      <rect id="Rectangle_247" data-name="Rectangle 247" width="1.886" height="1.997" fill="#0c1559"/>
    </g>
  </g>
  <g id="Group_257" data-name="Group 257" transform="translate(8.807 8.519)">
    <g id="Group_256" data-name="Group 256" transform="translate(0 0)">
      <rect id="Rectangle_248" data-name="Rectangle 248" width="1.886" height="1.997" fill="#0c1559"/>
    </g>
  </g>
  <g id="Group_259" data-name="Group 259" transform="translate(11.769 8.519)">
    <g id="Group_258" data-name="Group 258" transform="translate(0 0)">
      <rect id="Rectangle_249" data-name="Rectangle 249" width="1.886" height="1.997" fill="#0c1559"/>
    </g>
  </g>
  <g id="Group_261" data-name="Group 261" transform="translate(13.944 8.519)">
    <g id="Group_260" data-name="Group 260" transform="translate(0 0)">
      <rect id="Rectangle_250" data-name="Rectangle 250" width="1.986" height="1.997" fill="#0c1559"/>
    </g>
  </g>
  <g id="Group_263" data-name="Group 263" transform="translate(3.574 11.462)">
    <g id="Group_262" data-name="Group 262" transform="translate(0 0)">
      <rect id="Rectangle_251" data-name="Rectangle 251" width="1.886" height="1.997" fill="#0c1559"/>
    </g>
  </g>
  <g id="Group_265" data-name="Group 265" transform="translate(5.845 11.462)">
    <g id="Group_264" data-name="Group 264" transform="translate(0 0)">
      <rect id="Rectangle_252" data-name="Rectangle 252" width="1.886" height="1.997" fill="#0c1559"/>
    </g>
  </g>
  <g id="Group_267" data-name="Group 267" transform="translate(8.807 11.462)">
    <g id="Group_266" data-name="Group 266" transform="translate(0 0)">
      <rect id="Rectangle_253" data-name="Rectangle 253" width="1.886" height="1.997" fill="#0c1559"/>
    </g>
  </g>
  <g id="Group_269" data-name="Group 269" transform="translate(11.769 11.462)">
    <g id="Group_268" data-name="Group 268" transform="translate(0 0)">
      <rect id="Rectangle_254" data-name="Rectangle 254" width="1.886" height="1.997" fill="#0c1559"/>
    </g>
  </g>
  <g id="Group_271" data-name="Group 271" transform="translate(3.574 14.483)">
    <g id="Group_270" data-name="Group 270" transform="translate(0 0)">
      <rect id="Rectangle_255" data-name="Rectangle 255" width="1.886" height="1.997" fill="#0c1559"/>
    </g>
  </g>
  <g id="Group_273" data-name="Group 273" transform="translate(5.845 14.483)">
    <g id="Group_272" data-name="Group 272" transform="translate(0 0)">
      <rect id="Rectangle_256" data-name="Rectangle 256" width="1.886" height="1.997" fill="#0c1559"/>
    </g>
  </g>
  <g id="Group_275" data-name="Group 275" transform="translate(8.807 14.483)">
    <g id="Group_274" data-name="Group 274" transform="translate(0 0)">
      <rect id="Rectangle_257" data-name="Rectangle 257" width="1.886" height="1.997" fill="#0c1559"/>
    </g>
  </g>
  <g id="Group_277" data-name="Group 277" transform="translate(11.769 14.483)">
    <g id="Group_276" data-name="Group 276" transform="translate(0 0)">
      <rect id="Rectangle_258" data-name="Rectangle 258" width="1.886" height="1.997" fill="#0c1559"/>
    </g>
  </g>
  <g id="Group_279" data-name="Group 279" transform="translate(13.944 11.462)">
    <g id="Group_278" data-name="Group 278" transform="translate(0 0)">
      <rect id="Rectangle_259" data-name="Rectangle 259" width="1.986" height="1.997" fill="#0c1559"/>
    </g>
  </g>
</svg>
