<svg xmlns="http://www.w3.org/2000/svg" width="11.458" height="16.879" viewBox="0 0 11.458 16.879">
  <g id="layer1" transform="translate(-1.898 -6.793)">
    <path id="path6728" d="M7.585,17.671a.487.487,0,0,1-.3-.139l-2.87-2.865a.488.488,0,0,1,.69-.69l2.037,2.037V7.29a1.049,1.049,0,1,1,.972,0v8.722l2.036-2.032a.488.488,0,0,1,.69.69l-2.87,2.865a.487.487,0,0,1-.384.139ZM5.65,11.9A5.731,5.731,0,1,1,9.613,11.9a.485.485,0,1,1-.336-.91,4.754,4.754,0,1,0-3.291.005.487.487,0,0,1,.287.623.464.464,0,0,1-.623.288Z" transform="translate(0 6)" fill="#0c1559"/>
  </g>
</svg>
