<svg xmlns="http://www.w3.org/2000/svg" width="14.656" height="13.726" viewBox="0 0 14.656 13.726">
  <g id="layer1" transform="translate(-0.529 -291.179)">
    <path id="path52" d="M7.849,291.179a.756.756,0,0,0-.517.207.669.669,0,0,0-.209.49v5.517a.735.735,0,0,0,1.467,0v-5.517a.669.669,0,0,0-.215-.5.757.757,0,0,0-.527-.2Zm4.276,1.383c-.024,0-.048,0-.072,0a.725.725,0,0,0-.637.48.665.665,0,0,0,.231.737A5.385,5.385,0,0,1,13.72,298a5.689,5.689,0,0,1-5.859,5.527A5.694,5.694,0,0,1,2,298a5.377,5.377,0,0,1,2.05-4.2.662.662,0,0,0,.082-.972.765.765,0,0,0-1.033-.077A6.744,6.744,0,0,0,.529,298a7.141,7.141,0,0,0,7.332,6.906A7.134,7.134,0,0,0,15.185,298a6.741,6.741,0,0,0-2.591-5.268.76.76,0,0,0-.47-.17Z" transform="translate(0 0)" fill="#0c1559"/>
  </g>
</svg>
