<svg xmlns="http://www.w3.org/2000/svg" width="16.999" height="14.729" viewBox="0 0 16.999 14.729">
  <g id="layers" transform="translate(0 -34.184)">
    <g id="Group_330" data-name="Group 330" transform="translate(0 34.184)">
      <g id="Group_329" data-name="Group 329" transform="translate(0 0)">
        <path id="Path_422" data-name="Path 422" d="M16.6,37.6,8.77,34.238a.667.667,0,0,0-.526,0L.412,37.6a.667.667,0,0,0,0,1.227l7.832,3.337a.667.667,0,0,0,.523,0L16.6,38.825a.667.667,0,0,0,0-1.227ZM8.507,40.823,2.373,38.209l6.134-2.631,6.134,2.631Z" transform="translate(-0.008 -34.184)" fill="#0c1559"/>
      </g>
    </g>
    <g id="Group_332" data-name="Group 332" transform="translate(0 44.218)">
      <g id="Group_331" data-name="Group 331">
        <path id="Path_423" data-name="Path 423" d="M16.944,336.809a.667.667,0,0,0-.876-.35L8.5,339.705.93,336.458A.667.667,0,0,0,.4,337.685l7.832,3.36a.668.668,0,0,0,.526,0l7.832-3.36A.667.667,0,0,0,16.944,336.809Z" transform="translate(0 -336.404)" fill="#0c1559"/>
      </g>
    </g>
    <g id="Group_334" data-name="Group 334" transform="translate(0 40.88)">
      <g id="Group_333" data-name="Group 333" transform="translate(0 0)">
        <path id="Path_424" data-name="Path 424" d="M16.951,236.294a.668.668,0,0,0-.876-.352l-7.57,3.226-7.57-3.226a.667.667,0,1,0-.524,1.228l7.832,3.337a.668.668,0,0,0,.523,0L16.6,237.17A.668.668,0,0,0,16.951,236.294Z" transform="translate(-0.007 -235.889)" fill="#0c1559"/>
      </g>
    </g>
  </g>
</svg>
