<svg xmlns="http://www.w3.org/2000/svg" width="25.105" height="25.087" viewBox="0 0 25.105 25.087">
  <g id="Layer_3" data-name="Layer 3" transform="translate(0.047 0.046)">
    <path id="Path_197" data-name="Path 197" d="M27.8,20.107a.392.392,0,1,0-.617.483,4.653,4.653,0,0,1,.995,2.892,4.7,4.7,0,1,1-2.17-3.962.392.392,0,0,0,.422-.66A5.487,5.487,0,1,0,27.8,20.107Z" transform="translate(-10.972 -10.975)" fill="#0c1559"/>
    <path id="Path_198" data-name="Path 198" d="M18.477,16.815a.4.4,0,0,1-.045-.5,7,7,0,0,0,.913-2.108l1.009.5c0,.047-.014.094-.014.142a1.572,1.572,0,1,0,.277-.887l-1.12-.56a7.157,7.157,0,0,0,.011-1.74A6.925,6.925,0,0,0,18.429,8.7l.888-.888a3.534,3.534,0,1,0-.554-.554l-.8.8a7.033,7.033,0,0,0-4.55-2.549c-.172-.022-.344-.034-.516-.044V4.617a1.567,1.567,0,1,0-.783,0v.852A7.007,7.007,0,0,0,7.805,7.252L6.249,5.7a3.534,3.534,0,1,0-.554.554L7.251,7.806a7.011,7.011,0,0,0-1.783,4.309H4.616a1.567,1.567,0,1,0,0,.783h.852c.009.172.022.344.044.516A6.933,6.933,0,0,0,6.9,16.77l-1.21,1.21a3.534,3.534,0,1,0,.554.554l1.168-1.168a7.026,7.026,0,0,0,4.253,2.142,7.2,7.2,0,0,0,1.31.032l.261,1.045a1.561,1.561,0,1,0,.833-.244c-.029,0-.055.007-.084.009l-.227-.908a6.972,6.972,0,0,0,2.555-1.008.394.394,0,0,1,.5.045l6.22,6.219a1.173,1.173,0,0,0,.831.344.774.774,0,0,0,.1,0,1.178,1.178,0,0,0,.862-.489,1.208,1.208,0,0,0-.157-1.543Zm3.43-2.742a.783.783,0,1,1-.783.783A.783.783,0,0,1,21.907,14.073ZM21.515,2.322a2.742,2.742,0,1,1-2.742,2.742,2.742,2.742,0,0,1,2.742-2.742ZM3.5,23.474a2.742,2.742,0,1,1,2.742-2.742A2.742,2.742,0,0,1,3.5,23.474Zm11.359-1.567a.783.783,0,1,1-.783-.783A.783.783,0,0,1,14.856,21.907Zm-3.134-18.8a.783.783,0,1,1,.783.783A.783.783,0,0,1,11.723,3.106ZM3.5,6.239A2.742,2.742,0,1,1,6.239,3.5,2.742,2.742,0,0,1,3.5,6.239ZM3.105,13.29a.783.783,0,1,1,.783-.783A.783.783,0,0,1,3.105,13.29Zm21.082,10.8a.392.392,0,0,1-.289.166.384.384,0,0,1-.309-.114l-6.219-6.219a1.162,1.162,0,0,0-.825-.343,1.2,1.2,0,0,0-.651.2,6.282,6.282,0,1,1,1.882-1.883,1.173,1.173,0,0,0,.149,1.477l6.189,6.189a.425.425,0,0,1,.075.532Z" transform="translate(0)" fill="#0c1559"/>
    <path id="Path_199" data-name="Path 199" d="M24,27.484v.7a1.19,1.19,0,0,0,.676,1.067,5.47,5.47,0,0,0,4.914,0,1.19,1.19,0,0,0,.677-1.067v-.7a3.137,3.137,0,0,0-1.951-2.9,1.567,1.567,0,1,0-2.364,0A3.137,3.137,0,0,0,24,27.484Zm2.35-3.917a.783.783,0,1,1,.783.783A.783.783,0,0,1,26.35,23.567Zm.783,1.567a2.353,2.353,0,0,1,2.35,2.35v.7a.4.4,0,0,1-.23.36,4.659,4.659,0,0,1-4.24,0,.4.4,0,0,1-.23-.36v-.7A2.353,2.353,0,0,1,27.134,25.134Z" transform="translate(-14.628 -13.41)" fill="#0c1559"/>
    <path id="Path_200" data-name="Path 200" d="M50.641,11.451a3.643,3.643,0,0,0,2.635,0,1,1,0,0,0,.641-.928,1.952,1.952,0,0,0-.987-1.69,1.175,1.175,0,1,0-1.943,0A1.952,1.952,0,0,0,50,10.523,1,1,0,0,0,50.641,11.451Zm.926-3.278a.392.392,0,1,1,.392.392A.392.392,0,0,1,51.567,8.173Zm.392,1.175a1.175,1.175,0,0,1,1.175,1.175.208.208,0,0,1-.133.2h0a2.839,2.839,0,0,1-2.083,0,.208.208,0,0,1-.134-.2A1.175,1.175,0,0,1,51.959,9.348Z" transform="translate(-30.443 -4.284)" fill="#0c1559"/>
    <path id="Path_201" data-name="Path 201" d="M6.93,48.833a1.175,1.175,0,1,0-1.943,0A1.952,1.952,0,0,0,4,50.523a1,1,0,0,0,.641.928,3.643,3.643,0,0,0,2.635,0,1,1,0,0,0,.641-.928,1.952,1.952,0,0,0-.987-1.69Zm-1.363-.66a.392.392,0,1,1,.392.392A.392.392,0,0,1,5.567,48.173ZM7,50.719H7a2.84,2.84,0,0,1-2.083,0,.208.208,0,0,1-.134-.2,1.175,1.175,0,0,1,2.35,0,.208.208,0,0,1-.133.2Z" transform="translate(-2.462 -28.616)" fill="#0c1559"/>
    <path id="Path_202" data-name="Path 202" d="M6.93,4.833a1.175,1.175,0,1,0-1.943,0A1.952,1.952,0,0,0,4,6.523a1,1,0,0,0,.641.928,3.643,3.643,0,0,0,2.635,0,1,1,0,0,0,.641-.928A1.952,1.952,0,0,0,6.93,4.833Zm-1.363-.66a.392.392,0,1,1,.392.392A.392.392,0,0,1,5.567,4.173ZM7,6.719H7a2.839,2.839,0,0,1-2.083,0,.208.208,0,0,1-.134-.2,1.175,1.175,0,1,1,2.35,0A.208.208,0,0,1,7,6.719Z" transform="translate(-2.462 -1.851)" fill="#0c1559"/>
  </g>
</svg>
