<svg xmlns="http://www.w3.org/2000/svg" width="20.267" height="18.498" viewBox="0 0 20.267 18.498">
  <path id="list" d="M19.573,10.461a2.542,2.542,0,0,0-3.358,0l-4.347,3.958a.714.714,0,0,0-.2.3l-.947,2.844a.679.679,0,0,0,.191.715.831.831,0,0,0,.567.218.856.856,0,0,0,.211-.026l3.2-.808a.814.814,0,0,0,.348-.185l4.338-3.951a2.039,2.039,0,0,0,0-3.066Zm-5.309,5.86-1.608.406.471-1.414,2.933-2.671,1.12,1.022Zm4.19-3.817-.153.14-1.12-1.022.153-.139a.847.847,0,0,1,1.12,0,.68.68,0,0,1,0,1.021Zm-9.388,5.27a.759.759,0,0,1-.792.723H3.168A3.042,3.042,0,0,1,0,15.607V2.889A3.042,3.042,0,0,1,3.168,0H12.9a3.041,3.041,0,0,1,3.167,2.89V8.453a.8.8,0,0,1-1.583,0V2.889A1.521,1.521,0,0,0,12.9,1.444H3.168A1.521,1.521,0,0,0,1.584,2.889V15.607a1.521,1.521,0,0,0,1.583,1.445H8.274A.759.759,0,0,1,9.066,17.774Zm3.84-12.392a.759.759,0,0,1-.792.723H9.779a.759.759,0,0,1-.792-.723.759.759,0,0,1,.792-.723h2.336A.759.759,0,0,1,12.906,5.382ZM8.133,3.891,6.285,5.933a1.429,1.429,0,0,1-.979.463l-.091,0a1.456,1.456,0,0,1-.951-.347l-.021-.019-.849-.8a.679.679,0,0,1,.015-1.022.846.846,0,0,1,1.12.014L5.2,4.86l1.71-1.889a.845.845,0,0,1,1.115-.1.68.68,0,0,1,.106,1.017Zm3.981,6.657H9.779a.726.726,0,1,1,0-1.445h2.336a.726.726,0,1,1,0,1.445ZM8.133,8.331,6.285,10.372a1.429,1.429,0,0,1-.979.463l-.091,0a1.457,1.457,0,0,1-.952-.347l-.02-.018-.849-.792a.679.679,0,0,1,.012-1.022.846.846,0,0,1,1.12.011L5.2,9.3,6.912,7.41a.845.845,0,0,1,1.115-.1.68.68,0,0,1,.106,1.017Zm0,4.372L6.285,14.744a1.429,1.429,0,0,1-.979.463l-.091,0a1.457,1.457,0,0,1-.952-.347l-.02-.018-.849-.792a.679.679,0,0,1,.012-1.022.846.846,0,0,1,1.12.011l.676.63,1.711-1.89a.845.845,0,0,1,1.115-.1A.68.68,0,0,1,8.133,12.7Zm0,0" transform="translate(-0.001 0.001)" fill="#0c1559"/>
</svg>
