<svg xmlns="http://www.w3.org/2000/svg" width="21" height="21" viewBox="0 0 21 21">
  <g id="paper-plane" transform="translate(0 0)">
    <g id="Group_227" data-name="Group 227" transform="translate(0 0)">
      <path id="Path_217" data-name="Path 217" d="M20.8.086a.476.476,0,0,0-.509-.023L.241,11.517a.477.477,0,0,0,.086.867l5.986,2L8.62,20.687A.477.477,0,0,0,9.068,21a.436.436,0,0,0,.055,0,.471.471,0,0,0,.314-.18l0,0,3.4-4.265,4.671,1.557a.468.468,0,0,0,.151.025.478.478,0,0,0,.471-.4L20.994.556A.476.476,0,0,0,20.8.086ZM1.641,11.817,17.523,2.741,6.557,13.455Zm7.715,2.918a.478.478,0,0,0-.09.227L8.835,18.5l-1.6-4.37,9.334-9.119Zm.39,4.17.4-3.248,1.73.577ZM17.28,17.03l-6.765-2.255L19.726,2.353Z" transform="translate(0 0)" fill="#0c1559"/>
    </g>
  </g>
</svg>
