<svg xmlns="http://www.w3.org/2000/svg" width="23.697" height="23.697" viewBox="0 0 23.697 23.697">
  <g id="settings" transform="translate(0 -0.001)">
    <g id="Group_247" data-name="Group 247" transform="translate(0 0.001)">
      <path id="Path_235" data-name="Path 235" d="M22.484,9.362,20.821,9.08a9.392,9.392,0,0,0-.668-1.614l.98-1.371a1.459,1.459,0,0,0-.158-1.886L19.5,2.734A1.453,1.453,0,0,0,18.465,2.3a1.438,1.438,0,0,0-.847.272l-1.376.98a9.294,9.294,0,0,0-1.673-.688l-.277-1.644A1.462,1.462,0,0,0,12.846,0H10.762A1.462,1.462,0,0,0,9.316,1.224L9.029,2.907a9.16,9.16,0,0,0-1.609.678L6.059,2.6a1.462,1.462,0,0,0-1.886.158L2.693,4.238a1.465,1.465,0,0,0-.158,1.886l.99,1.391a9.174,9.174,0,0,0-.658,1.619l-1.644.277A1.462,1.462,0,0,0,0,10.857v2.084a1.462,1.462,0,0,0,1.223,1.445l1.683.287a9.161,9.161,0,0,0,.678,1.609l-.975,1.356a1.459,1.459,0,0,0,.158,1.886L4.242,21a1.453,1.453,0,0,0,1.035.431,1.438,1.438,0,0,0,.847-.272l1.391-.99a9.365,9.365,0,0,0,1.564.644l.277,1.663A1.462,1.462,0,0,0,10.8,23.7h2.089a1.462,1.462,0,0,0,1.445-1.223l.282-1.663a9.392,9.392,0,0,0,1.614-.668l1.371.98a1.453,1.453,0,0,0,.851.272h0a1.453,1.453,0,0,0,1.035-.431l1.475-1.475a1.465,1.465,0,0,0,.158-1.886l-.98-1.376a9.325,9.325,0,0,0,.668-1.614l1.663-.277A1.462,1.462,0,0,0,23.7,12.892V10.808A1.445,1.445,0,0,0,22.484,9.362Zm-.114,3.53a.128.128,0,0,1-.109.129l-2.079.347a.665.665,0,0,0-.535.49,7.925,7.925,0,0,1-.861,2.074.669.669,0,0,0,.03.728l1.223,1.723a.135.135,0,0,1-.015.168l-1.475,1.475a.126.126,0,0,1-.094.04.122.122,0,0,1-.074-.025l-1.718-1.223a.669.669,0,0,0-.728-.03,7.925,7.925,0,0,1-2.074.861.657.657,0,0,0-.49.535l-.351,2.079a.128.128,0,0,1-.129.109H10.807a.128.128,0,0,1-.129-.109l-.347-2.079a.665.665,0,0,0-.49-.535,8.229,8.229,0,0,1-2.03-.832.685.685,0,0,0-.337-.089.652.652,0,0,0-.386.124L5.356,20.084a.147.147,0,0,1-.074.025.133.133,0,0,1-.094-.04L3.713,18.594a.134.134,0,0,1-.015-.168l1.218-1.708a.678.678,0,0,0,.03-.733,7.85,7.85,0,0,1-.871-2.069.678.678,0,0,0-.535-.49L1.445,13.07a.128.128,0,0,1-.109-.129V10.857a.128.128,0,0,1,.109-.129l2.064-.347a.669.669,0,0,0,.54-.5A7.917,7.917,0,0,1,4.9,7.808a.661.661,0,0,0-.035-.723L3.629,5.352a.135.135,0,0,1,.015-.168L5.119,3.709a.126.126,0,0,1,.094-.04.122.122,0,0,1,.074.025L6.995,4.912a.678.678,0,0,0,.733.03A7.85,7.85,0,0,1,9.8,4.07a.678.678,0,0,0,.49-.535l.356-2.094a.128.128,0,0,1,.129-.109h2.084a.128.128,0,0,1,.129.109l.347,2.064a.669.669,0,0,0,.5.54,8.035,8.035,0,0,1,2.124.871.669.669,0,0,0,.728-.03l1.708-1.228a.147.147,0,0,1,.074-.025.133.133,0,0,1,.094.04l1.475,1.475a.134.134,0,0,1,.015.168L18.821,7.035a.669.669,0,0,0-.03.728,7.925,7.925,0,0,1,.861,2.074.657.657,0,0,0,.535.49l2.079.351a.128.128,0,0,1,.109.129v2.084Z" transform="translate(0 -0.001)" fill="#0c1559"/>
      <path id="Path_236" data-name="Path 236" d="M141.214,136a5.114,5.114,0,1,0,5.114,5.114A5.117,5.117,0,0,0,141.214,136Zm0,8.891a3.777,3.777,0,1,1,3.777-3.777A3.78,3.78,0,0,1,141.214,144.892Z" transform="translate(-129.363 -129.269)" fill="#0c1559"/>
    </g>
  </g>
</svg>
