<svg xmlns="http://www.w3.org/2000/svg" width="10.064" height="17.324" viewBox="0 0 10.064 17.324">
  <g id="smartphone-call" transform="translate(-7.334)">
    <path id="Path_427" data-name="Path 427" d="M16.228,0H8.5a1.173,1.173,0,0,0-1.17,1.17V16.154A1.174,1.174,0,0,0,8.5,17.324h7.724a1.173,1.173,0,0,0,1.17-1.17V1.17A1.173,1.173,0,0,0,16.228,0Zm-5.1.843H13.6a.142.142,0,0,1,0,.284H11.13a.142.142,0,0,1,0-.284Zm1.235,15.9a.585.585,0,1,1,.585-.586A.585.585,0,0,1,12.366,16.739Zm4.218-1.58H8.148V1.856h8.435Z" transform="translate(0)" fill="#fff"/>
  </g>
</svg>
