<svg xmlns="http://www.w3.org/2000/svg" width="23.332" height="19" viewBox="0 0 23.332 19">
  <g id="group_1_" data-name="group (1)" transform="translate(-1 -4.57)">
    <path id="Path_218" data-name="Path 218" d="M10.159,13.46A4.445,4.445,0,1,0,5.714,9.015,4.445,4.445,0,0,0,10.159,13.46Zm0-7.333A2.889,2.889,0,1,1,7.269,9.016,2.889,2.889,0,0,1,10.159,6.126Z" transform="translate(-1.048)" fill="#0c1559"/>
    <path id="Path_219" data-name="Path 219" d="M22.555,14.611a3.305,3.305,0,1,0-3.305-3.305A3.305,3.305,0,0,0,22.555,14.611Zm0-5.055a1.75,1.75,0,1,1-1.75,1.75,1.75,1.75,0,0,1,1.75-1.75Z" transform="translate(-4.056 -0.762)" fill="#0c1559"/>
    <path id="Path_220" data-name="Path 220" d="M18.5,17.648a5.849,5.849,0,0,0-4.2,1.8A8.113,8.113,0,0,0,1,25.682a.778.778,0,0,0,.778.778H16.446a.778.778,0,0,0,.778-.778,8.106,8.106,0,0,0-.13-1.423h6.461a.778.778,0,0,0,.778-.778A5.839,5.839,0,0,0,18.5,17.648ZM2.6,24.9a6.552,6.552,0,0,1,12.763-1.183,6.186,6.186,0,0,1,.257,1.183Zm14.04-2.2a8.082,8.082,0,0,0-1.253-2.148A4.272,4.272,0,0,1,22.708,22.7Z" transform="translate(0 -2.889)" fill="#0c1559"/>
  </g>
</svg>
